<svg width="178" height="228" viewBox="0 0 178 228" fill="none" xmlns="http://www.w3.org/2000/svg">
  <path
    d="M139.5 0H36.5C29.5964 0 24 5.59644 24 12.5V115.5C24 122.404 29.5964 128 36.5 128H139.5C146.404 128 152 122.404 152 115.5V12.5C152 5.59644 146.404 0 139.5 0Z"
    fill="#3178C6" />
  <path
    d="M139.5 0H36.5C29.5964 0 24 5.59644 24 12.5V115.5C24 122.404 29.5964 128 36.5 128H139.5C146.404 128 152 122.404 152 115.5V12.5C152 5.59644 146.404 0 139.5 0Z"
    fill="#3178C6" />
  <path
    d="M116.176 47.8994L93.2327 89.6238L116.176 113.509L139.119 89.6238L116.176 47.8994ZM116.176 100.856L104.106 88.0834L116.176 66.1919L128.137 88.0834L116.176 100.856Z"
    fill="white" />
  <path
    d="M5.90716 175H3.10216C2.64016 175 2.40916 174.769 2.40916 174.307V154.474C2.40916 154.012 2.64016 153.781 3.10216 153.781H13.6292C14.0692 153.781 14.2892 154.012 14.2892 154.474V156.718C14.2892 157.18 14.0692 157.411 13.6292 157.411H6.99616C6.73216 157.411 6.60016 157.532 6.60016 157.774V162.889C6.60016 163.153 6.73216 163.285 6.99616 163.285H12.6392C13.1012 163.285 13.3322 163.516 13.3322 163.978V166.189C13.3322 166.673 13.1012 166.915 12.6392 166.915H6.99616C6.73216 166.915 6.60016 167.036 6.60016 167.278V174.307C6.60016 174.769 6.36916 175 5.90716 175ZM23.0076 175H21.9186C20.2246 175 18.9376 174.538 18.0576 173.614C17.1996 172.69 16.7706 171.359 16.7706 169.621V158.863C16.7706 158.401 17.0016 158.17 17.4636 158.17H20.2686C20.7306 158.17 20.9616 158.401 20.9616 158.863V169.423C20.9616 170.127 21.1046 170.633 21.3906 170.941C21.6986 171.227 22.1936 171.37 22.8756 171.37H24.0966C25.6146 171.37 26.3736 170.534 26.3736 168.862V158.863C26.3736 158.401 26.6046 158.17 27.0666 158.17H29.8386C30.3226 158.17 30.5646 158.401 30.5646 158.863V174.307C30.5646 174.769 30.3226 175 29.8386 175H27.0666C26.6046 175 26.3736 174.769 26.3736 174.307V173.218H26.2416C25.9996 173.812 25.5706 174.263 24.9546 174.571C24.3386 174.857 23.6896 175 23.0076 175ZM37.872 175H35.067C34.605 175 34.374 174.769 34.374 174.307V152.494C34.374 152.032 34.605 151.801 35.067 151.801H37.872C38.334 151.801 38.565 152.032 38.565 152.494V174.307C38.565 174.769 38.334 175 37.872 175ZM46.0254 175H43.2204C42.7584 175 42.5274 174.769 42.5274 174.307V152.494C42.5274 152.032 42.7584 151.801 43.2204 151.801H46.0254C46.4874 151.801 46.7184 152.032 46.7184 152.494V174.307C46.7184 174.769 46.4874 175 46.0254 175ZM56.8847 175H50.6147C50.1747 175 49.9547 174.769 49.9547 174.307V172.195C49.9547 171.953 49.9987 171.788 50.0867 171.7C50.1747 171.59 50.3507 171.535 50.6147 171.535H56.1257C57.2037 171.535 57.7427 171.205 57.7427 170.545V170.38C57.7427 169.852 57.2917 169.346 56.3897 168.862L53.1227 167.047C52.0007 166.475 51.1757 165.859 50.6477 165.199C50.1197 164.539 49.8557 163.692 49.8557 162.658C49.8557 161.118 50.2627 159.985 51.0767 159.259C51.8907 158.533 53.1667 158.17 54.9047 158.17H60.4157C60.8557 158.17 61.0757 158.401 61.0757 158.863V161.008C61.0757 161.25 61.0317 161.426 60.9437 161.536C60.8557 161.624 60.6797 161.668 60.4157 161.668H55.8287C54.7507 161.668 54.2117 161.943 54.2117 162.493V162.658C54.2117 163.142 54.6847 163.637 55.6307 164.143L58.9637 166.123C60.1077 166.739 60.9107 167.377 61.3727 168.037C61.8347 168.675 62.0657 169.522 62.0657 170.578C62.0657 173.526 60.3387 175 56.8847 175ZM65.3484 161.8H64.0284C63.7644 161.8 63.5774 161.756 63.4674 161.668C63.3794 161.58 63.3354 161.404 63.3354 161.14V158.863C63.3354 158.401 63.5664 158.17 64.0284 158.17H65.3484C65.5904 158.17 65.7114 158.049 65.7114 157.807V154.672C65.7114 154.21 65.9534 153.979 66.4374 153.979H69.2094C69.6714 153.979 69.9024 154.21 69.9024 154.672V157.807C69.9024 158.049 70.0344 158.17 70.2984 158.17H72.8724C73.3344 158.17 73.5654 158.401 73.5654 158.863V161.14C73.5654 161.382 73.5104 161.558 73.4004 161.668C73.3124 161.756 73.1364 161.8 72.8724 161.8H70.2984C70.0344 161.8 69.9024 161.921 69.9024 162.163V169.456C69.9024 170.138 70.0564 170.633 70.3644 170.941C70.6724 171.227 71.1784 171.37 71.8824 171.37H73.2024C73.6644 171.37 73.8954 171.601 73.8954 172.063V174.34C73.8954 174.582 73.8404 174.758 73.7304 174.868C73.6424 174.956 73.4664 175 73.2024 175H71.1894C69.4514 175 68.0984 174.538 67.1304 173.614C66.1844 172.69 65.7114 171.37 65.7114 169.654V162.163C65.7114 161.921 65.5904 161.8 65.3484 161.8ZM82.5262 175H81.7342C79.9962 175 78.6542 174.538 77.7082 173.614C76.7622 172.69 76.2892 171.359 76.2892 169.621V163.549C76.2892 161.811 76.7622 160.48 77.7082 159.556C78.6542 158.632 79.9962 158.17 81.7342 158.17H89.3572C89.8412 158.17 90.0832 158.401 90.0832 158.863V174.307C90.0832 174.769 89.8412 175 89.3572 175H86.5852C86.1232 175 85.8922 174.769 85.8922 174.307V173.218H85.7602C85.5182 173.812 85.0892 174.263 84.4732 174.571C83.8572 174.857 83.2082 175 82.5262 175ZM85.8922 168.862V162.163C85.8922 161.921 85.7602 161.8 85.4962 161.8H82.3942C81.6902 161.8 81.1952 161.954 80.9092 162.262C80.6232 162.548 80.4802 163.043 80.4802 163.747V169.423C80.4802 170.127 80.6232 170.633 80.9092 170.941C81.1952 171.227 81.6902 171.37 82.3942 171.37H83.6152C85.1332 171.37 85.8922 170.534 85.8922 168.862ZM104.424 172.063V174.34C104.424 174.582 104.369 174.758 104.259 174.868C104.171 174.956 103.995 175 103.731 175H98.8143C97.0763 175 95.7343 174.538 94.7883 173.614C93.8423 172.69 93.3693 171.359 93.3693 169.621V163.549C93.3693 161.811 93.8423 160.48 94.7883 159.556C95.7343 158.632 97.0763 158.17 98.8143 158.17H103.731C104.193 158.17 104.424 158.401 104.424 158.863V161.14C104.424 161.382 104.369 161.558 104.259 161.668C104.171 161.756 103.995 161.8 103.731 161.8H99.4743C98.7923 161.8 98.2973 161.954 97.9893 162.262C97.7033 162.548 97.5603 163.043 97.5603 163.747V169.423C97.5603 170.127 97.7033 170.633 97.9893 170.941C98.2973 171.227 98.7923 171.37 99.4743 171.37H103.731C104.193 171.37 104.424 171.601 104.424 172.063ZM116.903 158.17H120.104C120.368 158.17 120.544 158.247 120.632 158.401C120.72 158.555 120.687 158.753 120.533 158.995L116.144 166.222V166.354L120.731 174.175C120.863 174.395 120.874 174.593 120.764 174.769C120.654 174.923 120.456 175 120.17 175H117.332C116.958 175 116.683 174.956 116.507 174.868C116.353 174.78 116.188 174.593 116.012 174.307L111.821 166.948C111.623 166.596 111.623 166.233 111.821 165.859L115.781 158.83C116.023 158.39 116.397 158.17 116.903 158.17ZM110.765 175H107.96C107.498 175 107.267 174.769 107.267 174.307V152.494C107.267 152.032 107.498 151.801 107.96 151.801H110.765C111.227 151.801 111.458 152.032 111.458 152.494V174.307C111.458 174.769 111.227 175 110.765 175ZM129.201 175H122.931C122.491 175 122.271 174.769 122.271 174.307V172.195C122.271 171.953 122.315 171.788 122.403 171.7C122.491 171.59 122.667 171.535 122.931 171.535H128.442C129.52 171.535 130.059 171.205 130.059 170.545V170.38C130.059 169.852 129.608 169.346 128.706 168.862L125.439 167.047C124.317 166.475 123.492 165.859 122.964 165.199C122.436 164.539 122.172 163.692 122.172 162.658C122.172 161.118 122.579 159.985 123.393 159.259C124.207 158.533 125.483 158.17 127.221 158.17H132.732C133.172 158.17 133.392 158.401 133.392 158.863V161.008C133.392 161.25 133.348 161.426 133.26 161.536C133.172 161.624 132.996 161.668 132.732 161.668H128.145C127.067 161.668 126.528 161.943 126.528 162.493V162.658C126.528 163.142 127.001 163.637 127.947 164.143L131.28 166.123C132.424 166.739 133.227 167.377 133.689 168.037C134.151 168.675 134.382 169.522 134.382 170.578C134.382 173.526 132.655 175 129.201 175ZM147.235 153.781H150.007C150.469 153.781 150.7 154.001 150.7 154.441V169.621C150.7 171.337 150.227 172.668 149.281 173.614C148.335 174.538 147.004 175 145.288 175H141.988C140.25 175 138.908 174.538 137.962 173.614C137.016 172.69 136.543 171.359 136.543 169.621V166.519C136.543 166.057 136.774 165.826 137.236 165.826H140.041C140.503 165.826 140.734 166.057 140.734 166.519V169.423C140.734 170.127 140.877 170.633 141.163 170.941C141.471 171.227 141.966 171.37 142.648 171.37H144.595C145.299 171.37 145.794 171.227 146.08 170.941C146.366 170.633 146.509 170.127 146.509 169.423V154.474C146.509 154.012 146.751 153.781 147.235 153.781ZM154.313 169.588V168.928C154.313 168.466 154.544 168.235 155.006 168.235H157.811C158.273 168.235 158.504 168.466 158.504 168.928V169.192C158.504 170.028 158.669 170.6 158.999 170.908C159.329 171.216 159.934 171.37 160.814 171.37H162.365C163.223 171.37 163.817 171.205 164.147 170.875C164.499 170.545 164.675 169.929 164.675 169.027V168.631C164.675 167.993 164.411 167.509 163.883 167.179C163.377 166.827 162.739 166.618 161.969 166.552C161.199 166.486 160.363 166.365 159.461 166.189C158.581 165.991 157.756 165.749 156.986 165.463C156.216 165.155 155.567 164.572 155.039 163.714C154.533 162.834 154.28 161.712 154.28 160.348V159.193C154.28 157.477 154.764 156.146 155.732 155.2C156.7 154.254 158.042 153.781 159.758 153.781H163.058C164.796 153.781 166.149 154.254 167.117 155.2C168.085 156.146 168.569 157.477 168.569 159.193V159.82C168.569 160.282 168.338 160.513 167.876 160.513H165.071C164.609 160.513 164.378 160.282 164.378 159.82V159.622C164.378 158.764 164.213 158.181 163.883 157.873C163.553 157.565 162.948 157.411 162.068 157.411H160.781C159.879 157.411 159.263 157.587 158.933 157.939C158.625 158.269 158.471 158.929 158.471 159.919V160.546C158.471 161.58 159.373 162.174 161.177 162.328C163.047 162.482 164.708 162.856 166.16 163.45C166.93 163.78 167.568 164.374 168.074 165.232C168.602 166.068 168.866 167.146 168.866 168.466V169.588C168.866 171.304 168.382 172.635 167.414 173.581C166.446 174.527 165.104 175 163.388 175H159.791C158.075 175 156.733 174.527 155.765 173.581C154.797 172.635 154.313 171.304 154.313 169.588ZM37.1261 217H34.3541C33.8701 217 33.6281 216.769 33.6281 216.307V199.774C33.6281 199.532 33.5071 199.411 33.2651 199.411H29.5031C29.0411 199.411 28.8101 199.18 28.8101 198.718V196.474C28.8101 196.012 29.0411 195.781 29.5031 195.781H41.9771C42.4391 195.781 42.6701 196.012 42.6701 196.474V198.718C42.6701 199.18 42.4391 199.411 41.9771 199.411H38.2151C37.9511 199.411 37.8191 199.532 37.8191 199.774V216.307C37.8191 216.769 37.5881 217 37.1261 217ZM44.6619 211.588V210.928C44.6619 210.466 44.8929 210.235 45.3549 210.235H48.1599C48.6219 210.235 48.8529 210.466 48.8529 210.928V211.192C48.8529 212.028 49.0179 212.6 49.3479 212.908C49.6779 213.216 50.2829 213.37 51.1629 213.37H52.7139C53.5719 213.37 54.1659 213.205 54.4959 212.875C54.8479 212.545 55.0239 211.929 55.0239 211.027V210.631C55.0239 209.993 54.7599 209.509 54.2319 209.179C53.7259 208.827 53.0879 208.618 52.3179 208.552C51.5479 208.486 50.7119 208.365 49.8099 208.189C48.9299 207.991 48.1049 207.749 47.3349 207.463C46.5649 207.155 45.9159 206.572 45.3879 205.714C44.8819 204.834 44.6289 203.712 44.6289 202.348V201.193C44.6289 199.477 45.1129 198.146 46.0809 197.2C47.0489 196.254 48.3909 195.781 50.1069 195.781H53.4069C55.1449 195.781 56.4979 196.254 57.4659 197.2C58.4339 198.146 58.9179 199.477 58.9179 201.193V201.82C58.9179 202.282 58.6869 202.513 58.2249 202.513H55.4199C54.9579 202.513 54.7269 202.282 54.7269 201.82V201.622C54.7269 200.764 54.5619 200.181 54.2319 199.873C53.9019 199.565 53.2969 199.411 52.4169 199.411H51.1299C50.2279 199.411 49.6119 199.587 49.2819 199.939C48.9739 200.269 48.8199 200.929 48.8199 201.919V202.546C48.8199 203.58 49.7219 204.174 51.5259 204.328C53.3959 204.482 55.0569 204.856 56.5089 205.45C57.2789 205.78 57.9169 206.374 58.4229 207.232C58.9509 208.068 59.2149 209.146 59.2149 210.466V211.588C59.2149 213.304 58.7309 214.635 57.7629 215.581C56.7949 216.527 55.4529 217 53.7369 217H50.1399C48.4239 217 47.0819 216.527 46.1139 215.581C45.1459 214.635 44.6619 213.304 44.6619 211.588ZM71.691 217H68.094C66.356 217 65.014 216.538 64.068 215.614C63.122 214.69 62.649 213.359 62.649 211.621V201.16C62.649 199.422 63.122 198.091 64.068 197.167C65.014 196.243 66.356 195.781 68.094 195.781H71.691C73.407 195.781 74.738 196.254 75.684 197.2C76.652 198.124 77.136 199.444 77.136 201.16V202.711C77.136 203.195 76.894 203.437 76.41 203.437H73.638C73.176 203.437 72.945 203.195 72.945 202.711V201.358C72.945 200.654 72.791 200.159 72.483 199.873C72.197 199.565 71.702 199.411 70.998 199.411H68.754C68.072 199.411 67.577 199.565 67.269 199.873C66.983 200.159 66.84 200.654 66.84 201.358V211.423C66.84 212.127 66.983 212.633 67.269 212.941C67.577 213.227 68.072 213.37 68.754 213.37H70.998C71.702 213.37 72.197 213.227 72.483 212.941C72.791 212.633 72.945 212.127 72.945 211.423V210.07C72.945 209.586 73.176 209.344 73.638 209.344H76.41C76.894 209.344 77.136 209.586 77.136 210.07V211.621C77.136 213.337 76.652 214.668 75.684 215.614C74.738 216.538 73.407 217 71.691 217ZM88.4578 217H85.5208C83.7828 217 82.4408 216.538 81.4948 215.614C80.5488 214.69 80.0758 213.359 80.0758 211.621V205.549C80.0758 203.811 80.5488 202.48 81.4948 201.556C82.4408 200.632 83.7828 200.17 85.5208 200.17H88.4578C90.1738 200.17 91.5048 200.643 92.4508 201.589C93.4188 202.513 93.9028 203.833 93.9028 205.549V211.621C93.9028 213.337 93.4188 214.668 92.4508 215.614C91.5048 216.538 90.1738 217 88.4578 217ZM86.1478 213.403H87.8308C88.5348 213.403 89.0298 213.26 89.3158 212.974C89.6238 212.688 89.7778 212.193 89.7778 211.489V205.681C89.7778 204.977 89.6238 204.482 89.3158 204.196C89.0298 203.91 88.5348 203.767 87.8308 203.767H86.1478C85.4438 203.767 84.9488 203.91 84.6628 204.196C84.3768 204.482 84.2338 204.977 84.2338 205.681V211.489C84.2338 212.193 84.3768 212.688 84.6628 212.974C84.9488 213.26 85.4438 213.403 86.1478 213.403ZM100.694 217H97.8889C97.4269 217 97.1959 216.769 97.1959 216.307V200.863C97.1959 200.401 97.4269 200.17 97.8889 200.17H100.694C101.156 200.17 101.387 200.401 101.387 200.863V201.952H101.519C102.003 200.764 103.081 200.17 104.753 200.17H105.809C109.263 200.17 110.99 201.963 110.99 205.549V216.307C110.99 216.769 110.748 217 110.264 217H107.492C107.03 217 106.799 216.769 106.799 216.307V205.747C106.799 205.043 106.645 204.548 106.337 204.262C106.051 203.954 105.556 203.8 104.852 203.8H103.664C102.146 203.8 101.387 204.636 101.387 206.308V216.307C101.387 216.769 101.156 217 100.694 217ZM120.574 200.17H123.214C123.478 200.17 123.654 200.225 123.742 200.335C123.852 200.423 123.907 200.588 123.907 200.83V203.107C123.907 203.569 123.676 203.8 123.214 203.8H120.574C120.332 203.8 120.211 203.921 120.211 204.163V216.307C120.211 216.769 119.969 217 119.485 217H116.713C116.251 217 116.02 216.769 116.02 216.307V204.163C116.02 203.921 115.888 203.8 115.624 203.8H114.106C113.644 203.8 113.413 203.569 113.413 203.107V200.83C113.413 200.566 113.457 200.39 113.545 200.302C113.655 200.214 113.842 200.17 114.106 200.17H115.624C115.888 200.17 116.02 200.049 116.02 199.807V199.18C116.02 197.442 116.471 196.111 117.373 195.187C118.297 194.263 119.628 193.801 121.366 193.801H123.247C123.511 193.801 123.687 193.856 123.775 193.966C123.863 194.054 123.907 194.219 123.907 194.461V196.738C123.907 197.2 123.687 197.431 123.247 197.431H122.026C121.322 197.431 120.838 197.585 120.574 197.893C120.332 198.179 120.211 198.674 120.211 199.378V199.807C120.211 200.049 120.332 200.17 120.574 200.17ZM126.3 197.332V194.461C126.3 194.021 126.52 193.801 126.96 193.801H129.831C130.271 193.801 130.491 194.01 130.491 194.428V197.332C130.491 197.772 130.271 197.992 129.831 197.992H126.96C126.52 197.992 126.3 197.772 126.3 197.332ZM126.3 216.307V200.863C126.3 200.401 126.52 200.17 126.96 200.17H129.798C130.26 200.17 130.491 200.401 130.491 200.863V216.307C130.491 216.593 130.436 216.78 130.326 216.868C130.238 216.956 130.073 217 129.831 217H126.993C126.531 217 126.3 216.769 126.3 216.307ZM140.229 216.241H139.14C137.446 216.241 136.159 215.779 135.279 214.855C134.421 213.931 133.992 212.6 133.992 210.862V205.549C133.992 203.811 134.465 202.48 135.411 201.556C136.357 200.632 137.699 200.17 139.437 200.17H147.06C147.544 200.17 147.786 200.401 147.786 200.863V217.132C147.786 218.848 147.302 220.168 146.334 221.092C145.388 222.016 144.057 222.478 142.341 222.478H136.005C135.741 222.478 135.554 222.423 135.444 222.313C135.356 222.225 135.312 222.06 135.312 221.818V219.541C135.312 219.079 135.543 218.848 136.005 218.848H141.648C142.352 218.848 142.847 218.694 143.133 218.386C143.441 218.1 143.595 217.616 143.595 216.934V214.426H143.463C143.221 215.02 142.792 215.471 142.176 215.779C141.56 216.087 140.911 216.241 140.229 216.241ZM143.595 210.103V204.163C143.595 203.921 143.463 203.8 143.199 203.8H140.097C139.393 203.8 138.898 203.954 138.612 204.262C138.326 204.548 138.183 205.043 138.183 205.747V210.664C138.183 211.368 138.326 211.863 138.612 212.149C138.898 212.435 139.393 212.578 140.097 212.578H141.318C142.836 212.578 143.595 211.753 143.595 210.103Z"
    fill="#3178C6" />
</svg>
